# xmcd
#
# Track frame offsets: 
#        150
#        15497
#        32187
#        44492
#        58792
#        74022
#        93315
#        108385
#        122027
#        133212
#        152710
#        168287
#
# Disc length: 2414 seconds
#
# Revision: 0
# Processed by: cddbd v1.5.2PL0 Copyright (c) Steve Scherf et al.
# Submitted via: ExactAudioCopy v1.1
#
DISCID=a7096c0c
DTITLE=Johnny Blackcrow - No Reservations
DYEAR=1994
DGENRE=Country
TTITLE0=Cool Nights In Texas
TTITLE1=No Reservations
TTITLE2=First Hurricane
TTITLE3=The Devil's Hand
TTITLE4=Sad Old Country Song
TTITLE5=No More Love, But No More Lies
TTITLE6=Gold Belt Buckles
TTITLE7=Win Or Lose
TTITLE8=Last Call
TTITLE9=The Closer You Get
TTITLE10=Never Meant To Lead You On
TTITLE11=The Only One You Fool Is You
EXTD=
EXTT0=
EXTT1=
EXTT2=
EXTT3=
EXTT4=
EXTT5=
EXTT6=
EXTT7=
EXTT8=
EXTT9=
EXTT10=
EXTT11=
PLAYORDER=
